<?xml version="1.0" standalone="no"?>
<!DOCTYPE svg PUBLIC "-//W3C//DTD SVG 20010904//EN"
 "http://www.w3.org/TR/2001/REC-SVG-20010904/DTD/svg10.dtd">
<svg version="1.0" xmlns="http://www.w3.org/2000/svg"
 width="119.000000pt" height="125.000000pt" viewBox="0 0 119.000000 125.000000"
 preserveAspectRatio="xMidYMid meet">

<g transform="translate(0.000000,125.000000) scale(0.100000,-0.100000)"
fill="#000000" stroke="none">
<path d="M186 1234 c-34 -11 -64 -31 -102 -68 -83 -84 -84 -91 -84 -541 0
-450 1 -457 84 -541 83 -82 94 -84 511 -84 417 0 428 2 511 84 81 82 84 99 84
470 l0 310 -50 -49 -50 -49 0 -270 c0 -269 0 -269 -25 -312 -16 -28 -39 -49
-68 -63 -42 -20 -58 -21 -404 -21 -356 0 -360 0 -403 23 -30 16 -51 37 -67 67
-23 43 -23 45 -23 435 0 390 0 392 23 435 16 30 37 51 67 67 41 22 52 23 275
23 l231 0 55 46 c30 26 56 48 58 50 2 2 -126 4 -285 3 -227 0 -299 -4 -338
-15z"/>
<path d="M970 1172 l-45 -41 85 -86 85 -86 38 40 c31 34 37 47 37 86 0 64 -46
115 -110 122 -42 5 -49 2 -90 -35z"/>
<path d="M839 1041 c-8 -11 -109 -118 -226 -239 l-211 -219 -26 -84 c-29 -96
-33 -137 -11 -145 8 -3 57 8 110 26 l95 32 204 211 c112 117 216 227 231 245
l27 32 -78 80 c-42 44 -83 80 -90 80 -6 0 -18 -9 -25 -19z"/>
</g>
</svg>
